# xmcd
#
# Track frame offsets: 
#        150
#        22857
#        40175
#        62750
#
# Disc length: 1112 seconds
#
# Revision: 3
# Processed by: cddbd v1.5.2PL0 Copyright (c) Steve Scherf et al.
# Submitted via: ExactAudioCopy v0.99pb5
#
DISCID=27045604
DTITLE=Vanilla Ice - Ice Ice Baby (Remix)
DYEAR=1990
DGENRE=Hip-Hop
TTITLE0=Ice Ice Baby (Miami Drop Mix)
TTITLE1=Ice Ice Baby (Acapella Mix)
TTITLE2=Ice Ice Baby (Miami Drop Mix Instrumental)
TTITLE3=Play That Funky Music (Acapella Mix)
EXTD=
EXTT0=
EXTT1=
EXTT2=
EXTT3=
PLAYORDER=
